<?xml version="1.0" encoding="utf-8"?>
<!-- Generator: Adobe Illustrator 26.0.2, SVG Export Plug-In . SVG Version: 6.00 Build 0)  -->
<svg version="1.1"
	 id="svg2" xmlns:cc="http://creativecommons.org/ns#" xmlns:dc="http://purl.org/dc/elements/1.1/" xmlns:inkscape="http://www.inkscape.org/namespaces/inkscape" xmlns:rdf="http://www.w3.org/1999/02/22-rdf-syntax-ns#" xmlns:sodipodi="http://sodipodi.sourceforge.net/DTD/sodipodi-0.dtd" xmlns:svg="http://www.w3.org/2000/svg"
	 xmlns="http://www.w3.org/2000/svg" xmlns:xlink="http://www.w3.org/1999/xlink" x="0px" y="0px" viewBox="0 0 1000 759"
	 style="enable-background:new 0 0 1000 759;" xml:space="preserve">
<sodipodi:namedview  bordercolor="#666666" borderopacity="1" gridtolerance="10" guidetolerance="10" id="namedview2890" inkscape:current-layer="svg2" inkscape:cx="500" inkscape:cy="379.49731" inkscape:pageopacity="0" inkscape:pageshadow="2" inkscape:window-height="725" inkscape:window-maximized="1" inkscape:window-width="1280" inkscape:window-x="-9" inkscape:window-y="-9" inkscape:zoom="0.62582788" objecttolerance="10" pagecolor="#ffffff" showgrid="false">
	</sodipodi:namedview>
<defs>
	
		<inkscape:perspective  id="perspective2894" inkscape:persp3d-origin="500 : 252.99821 : 1" inkscape:vp_x="0 : 379.49731 : 1" inkscape:vp_y="0 : 1000 : 0" inkscape:vp_z="1000 : 379.49731 : 1" sodipodi:type="inkscape:persp3d">
		</inkscape:perspective>
	
		<inkscape:perspective  id="perspective2938" inkscape:persp3d-origin="0.5 : 0.33333333 : 1" inkscape:vp_x="0 : 0.5 : 1" inkscape:vp_y="0 : 1000 : 0" inkscape:vp_z="1 : 0.5 : 1" sodipodi:type="inkscape:persp3d">
		</inkscape:perspective>
	
		<inkscape:perspective  id="perspective2997" inkscape:persp3d-origin="0.5 : 0.33333333 : 1" inkscape:vp_x="0 : 0.5 : 1" inkscape:vp_y="0 : 1000 : 0" inkscape:vp_z="1 : 0.5 : 1" sodipodi:type="inkscape:persp3d">
		</inkscape:perspective>
	
		<inkscape:perspective  id="perspective3018" inkscape:persp3d-origin="0.5 : 0.33333333 : 1" inkscape:vp_x="0 : 0.5 : 1" inkscape:vp_y="0 : 1000 : 0" inkscape:vp_z="1 : 0.5 : 1" sodipodi:type="inkscape:persp3d">
		</inkscape:perspective>
	
		<inkscape:perspective  id="perspective3039" inkscape:persp3d-origin="0.5 : 0.33333333 : 1" inkscape:vp_x="0 : 0.5 : 1" inkscape:vp_y="0 : 1000 : 0" inkscape:vp_z="1 : 0.5 : 1" sodipodi:type="inkscape:persp3d">
		</inkscape:perspective>
	
		<inkscape:perspective  id="perspective3060" inkscape:persp3d-origin="0.5 : 0.33333333 : 1" inkscape:vp_x="0 : 0.5 : 1" inkscape:vp_y="0 : 1000 : 0" inkscape:vp_z="1 : 0.5 : 1" sodipodi:type="inkscape:persp3d">
		</inkscape:perspective>
	
		<inkscape:perspective  id="perspective3081" inkscape:persp3d-origin="0.5 : 0.33333333 : 1" inkscape:vp_x="0 : 0.5 : 1" inkscape:vp_y="0 : 1000 : 0" inkscape:vp_z="1 : 0.5 : 1" sodipodi:type="inkscape:persp3d">
		</inkscape:perspective>
	
		<inkscape:perspective  id="perspective3102" inkscape:persp3d-origin="0.5 : 0.33333333 : 1" inkscape:vp_x="0 : 0.5 : 1" inkscape:vp_y="0 : 1000 : 0" inkscape:vp_z="1 : 0.5 : 1" sodipodi:type="inkscape:persp3d">
		</inkscape:perspective>
	
		<inkscape:perspective  id="perspective3123" inkscape:persp3d-origin="0.5 : 0.33333333 : 1" inkscape:vp_x="0 : 0.5 : 1" inkscape:vp_y="0 : 1000 : 0" inkscape:vp_z="1 : 0.5 : 1" sodipodi:type="inkscape:persp3d">
		</inkscape:perspective>
	
		<inkscape:perspective  id="perspective3144" inkscape:persp3d-origin="0.5 : 0.33333333 : 1" inkscape:vp_x="0 : 0.5 : 1" inkscape:vp_y="0 : 1000 : 0" inkscape:vp_z="1 : 0.5 : 1" sodipodi:type="inkscape:persp3d">
		</inkscape:perspective>
	
		<inkscape:perspective  id="perspective3165" inkscape:persp3d-origin="0.5 : 0.33333333 : 1" inkscape:vp_x="0 : 0.5 : 1" inkscape:vp_y="0 : 1000 : 0" inkscape:vp_z="1 : 0.5 : 1" sodipodi:type="inkscape:persp3d">
		</inkscape:perspective>
	
		<inkscape:perspective  id="perspective3186" inkscape:persp3d-origin="0.5 : 0.33333333 : 1" inkscape:vp_x="0 : 0.5 : 1" inkscape:vp_y="0 : 1000 : 0" inkscape:vp_z="1 : 0.5 : 1" sodipodi:type="inkscape:persp3d">
		</inkscape:perspective>
	
		<inkscape:perspective  id="perspective3207" inkscape:persp3d-origin="0.5 : 0.33333333 : 1" inkscape:vp_x="0 : 0.5 : 1" inkscape:vp_y="0 : 1000 : 0" inkscape:vp_z="1 : 0.5 : 1" sodipodi:type="inkscape:persp3d">
		</inkscape:perspective>
	
		<inkscape:perspective  id="perspective3228" inkscape:persp3d-origin="0.5 : 0.33333333 : 1" inkscape:vp_x="0 : 0.5 : 1" inkscape:vp_y="0 : 1000 : 0" inkscape:vp_z="1 : 0.5 : 1" sodipodi:type="inkscape:persp3d">
		</inkscape:perspective>
	
		<inkscape:perspective  id="perspective3249" inkscape:persp3d-origin="0.5 : 0.33333333 : 1" inkscape:vp_x="0 : 0.5 : 1" inkscape:vp_y="0 : 1000 : 0" inkscape:vp_z="1 : 0.5 : 1" sodipodi:type="inkscape:persp3d">
		</inkscape:perspective>
	
		<inkscape:perspective  id="perspective2840" inkscape:persp3d-origin="0.5 : 0.33333333 : 1" inkscape:vp_x="0 : 0.5 : 1" inkscape:vp_y="0 : 1000 : 0" inkscape:vp_z="1 : 0.5 : 1" sodipodi:type="inkscape:persp3d">
		</inkscape:perspective>
</defs>
<path d="M245.7,234.6l59.8,44.9c5.3,4,12.5,4.2,18,0.5L443,200.1c1.9-1.3,2.4-3.8,1.2-5.8c-0.8-1.2-2.1-1.8-3.5-1.8H288.5
	c-13.8,0-27.4,3.2-39.7,9.4L89.2,281.8c-5.3,2.6-8.6,8-8.6,13.9V462c0,5.9,3.3,11.2,8.5,13.9l178.4,90.6l175.9-79.1
	c2.1-1,3-3.4,2.1-5.5c-0.5-1.2-1.6-2-2.8-2.4l-221.9-53.3V247.1C220.8,234.3,235.4,226.9,245.7,234.6z"/>
<g>
	<path d="M484.4,237.9c0-22.4,12.9-36,33.6-36c17.9,0,28.7,9.8,31.1,26.4l-12.6,2.4c-2.1-11.2-7.8-17.3-18.8-17.3
		c-14.1,0-20.3,10.3-20.3,24.4c0,15.2,6.2,24.8,20.2,24.8c11.7,0,16.9-6.2,19.2-17.8l12.4,2.3c-2.3,16.7-13.4,26.9-31.7,26.9
		C496.5,274.1,484.4,260.2,484.4,237.9z"/>
	<path d="M604.1,272.6V244h-33.5v28.6h-13.2v-69.2h13.2v28.8h33.5v-28.8h13.2v69.2L604.1,272.6L604.1,272.6z"/>
	<path d="M626.6,272.6v-69.2h13.2v69.2L626.6,272.6L626.6,272.6z"/>
	<path d="M647.8,237.9c0-22.4,12.9-36,33.6-36c17.9,0,28.7,9.8,31.1,26.4l-12.6,2.4c-2.1-11.2-7.8-17.3-18.8-17.3
		c-14.1,0-20.3,10.3-20.3,24.4c0,15.2,6.2,24.8,20.2,24.8c11.7,0,16.9-6.2,19.2-17.8l12.4,2.3c-2.3,16.7-13.4,26.9-31.7,26.9
		C659.9,274.1,647.8,260.2,647.8,237.9z"/>
	<path d="M759.1,254.9h-29.5l-6,17.7H710l25.7-69.2h17.8l25.7,69.2h-14.1L759.1,254.9z M733.1,245.1h22.6l-2.9-8.5
		c-2.4-7.1-4.8-14.9-6.9-21.8H743c-2.1,6.9-4.6,14.8-7.1,21.8L733.1,245.1z"/>
	<path d="M776.1,238.9c0-22.6,11.3-36.9,33.6-36.9c18.3,0,27.9,8.9,30.7,24.7l-12.2,2.5c-2.5-10.5-7.8-15.8-18.6-15.8
		c-14.8,0-20.4,9.8-20.4,25.5c0,14.8,6.1,23.9,20.9,23.9c15.1,0,19-7.8,19-15.8h-19.4v-10.7h31.7v36.3h-12.1v-15.5h-1.2
		c-3,9.4-9.9,16.6-22.9,16.6C788.1,273.7,776.1,262.1,776.1,238.9z"/>
	<path d="M850.2,237.7c0-21.8,12.9-35.9,34.6-35.9c21.8,0,34.6,14.1,34.6,35.9c0,21.9-12.4,36.3-34.6,36.3
		C862.6,274.1,850.2,259.7,850.2,237.7z M906.3,237.7c0-14.5-6.7-24.3-21.5-24.3c-14.9,0-21.5,9.8-21.5,24.3
		c0,15,6.6,24.9,21.5,24.9C899.7,262.6,906.3,252.8,906.3,237.7z"/>
	<path d="M484.2,333.2c0-22.6,11.3-36.9,33.6-36.9c18.3,0,27.9,8.9,30.7,24.7l-12.2,2.5c-2.5-10.5-7.8-15.8-18.6-15.8
		c-14.8,0-20.4,9.8-20.4,25.5c0,14.8,6.1,23.9,20.9,23.9c15.1,0,19-7.8,19-15.8h-19.4v-10.7h31.7v36.3h-12.1v-15.5h-1.2
		c-3,9.4-9.9,16.6-22.9,16.6C496.2,368.1,484.2,356.4,484.2,333.2z"/>
	<path d="M583.3,341h-12.9v26h-13.2v-69.2h29c17.3,0,25.5,7.2,25.5,21c0,10.8-5.5,18-15.2,20.9l19.2,26.1v1.2h-15.4L583.3,341z
		 M570.4,308.8v21.1h14.8c9,0,13.7-3.5,13.7-10.8c0-7.1-3.6-10.3-13.5-10.3H570.4z"/>
	<path d="M669.2,349.3h-29.5l-6,17.7h-13.6l25.7-69.2h17.8l25.7,69.2h-14.1L669.2,349.3z M643.2,339.5h22.6l-2.9-8.5
		c-2.4-7.1-4.8-14.9-6.9-21.8h-2.9c-2.1,6.9-4.6,14.8-7.1,21.8L643.2,339.5z"/>
	<path d="M706.5,344.1v22.8h-13.2v-69.2h27.8c17.2,0,25.6,7.8,25.6,23.3c0,13.2-8.9,23-25.1,23L706.5,344.1L706.5,344.1z
		 M706.5,308.9v24.3h13.6c9.7,0,13.7-3.8,13.7-12.1c0-8.4-3.6-12.2-13.8-12.2H706.5z"/>
	<path d="M797.4,366.9v-28.6H764v28.6h-13.2v-69.2H764v28.8h33.5v-28.8h13.2v69.2L797.4,366.9L797.4,366.9z"/>
	<path d="M817.6,366.9v-69.2h13.2v69.2L817.6,366.9L817.6,366.9z"/>
	<path d="M836.5,332.2c0-22.4,12.9-36,33.6-36c17.9,0,28.7,9.8,31.1,26.4l-12.6,2.4c-2.1-11.2-7.8-17.3-18.8-17.3
		c-14.1,0-20.3,10.3-20.3,24.4c0,15.2,6.2,24.8,20.2,24.8c11.7,0,16.9-6.2,19.2-17.8l12.4,2.3c-2.3,16.7-13.4,26.9-31.7,26.9
		C848.6,368.4,836.5,354.6,836.5,332.2z"/>
	<path d="M488,392.1h28.1c23.9,0,34.8,12.1,34.8,34c0,21.9-13.2,35.2-34.8,35.2H488V392.1z M501.1,403v47.4h14
		c16.3,0,22.7-8.8,22.7-24.3c0-16.3-6.8-23-23.4-23H501.1z"/>
	<path d="M556.4,392.1h49.9v11.4h-36.8v17.1h33.3v11.3h-33.3v18h36.7v11.4h-49.8V392.1z"/>
	<path d="M612.4,440.2l12.6-2.6c1.7,9.8,8,14.5,18.4,14.5c9.6,0,14-3.5,14-9.1c0-5.9-3.8-8.9-17.4-11.2
		c-18.9-3.1-24.9-10.4-24.9-21.2c0-12.3,8.8-20,26.5-20c17.8,0,25,8.3,27.3,20.4l-13,2.5c-1.8-8.2-5.3-12.4-15-12.4
		c-8.8,0-12.9,3.2-12.9,8.8c0,4.9,2.6,8.4,17.2,11.1c20.6,3.8,25.4,11.3,25.4,21.2c0,12.7-8.1,20.6-27.5,20.6
		C622.1,462.6,614.1,453,612.4,440.2z"/>
	<path d="M678.9,461.3v-69.2H692v69.2L678.9,461.3L678.9,461.3z"/>
	<path d="M699.9,427.6c0-22.6,11.3-36.9,33.6-36.9c18.3,0,27.9,8.9,30.7,24.7l-12.2,2.5c-2.5-10.5-7.8-15.8-18.6-15.8
		c-14.8,0-20.4,9.8-20.4,25.5c0,14.8,6.1,23.9,20.9,23.9c15.1,0,19-7.8,19-15.8h-19.4v-10.7h31.7v36.3h-12.1v-15.5H752
		c-3,9.4-9.9,16.6-22.9,16.6C711.8,462.4,699.9,450.8,699.9,427.6z"/>
	<path d="M798.2,429.8c-3.8-7.1-8.6-17.9-12.1-26.2l-2.1,0.2c0.7,10,1.2,24.6,1.2,33.6v23.8H773v-69.2h18.8l15.2,27.1
		c5.1,9,10.3,20.6,13.4,28.6l2.1-0.1c-0.7-9.8-1.2-22.5-1.2-31.6v-24h12.1v69.2H816L798.2,429.8z"/>
	<path d="M484.4,520.9c0-22.4,12.9-36,33.6-36c17.9,0,28.7,9.8,31.1,26.4l-12.6,2.4c-2.1-11.2-7.8-17.3-18.8-17.3
		c-14.1,0-20.3,10.3-20.3,24.4c0,15.2,6.2,24.8,20.2,24.8c11.7,0,16.9-6.2,19.2-17.8l12.4,2.3c-2.3,16.7-13.4,26.9-31.7,26.9
		C496.5,557.1,484.4,543.3,484.4,520.9z"/>
	<path d="M570.6,543.8h31.2v11.8h-44.4v-69.2h13.2V543.8z"/>
	<path d="M651,528.3v-41.9h13v42.8c0,18-10.1,27.8-28.9,27.8c-19,0-29.9-9.7-29.9-27.8v-42.8h13.2v41.5c0,10.4,3.9,17.4,16.7,17.4
		C647.3,545.4,651,538.8,651,528.3z"/>
	<path d="M671,486.4h29c16.6,0,24.1,5.9,24.1,17.7c0,9-5.2,14.1-14,16.1v1.2c12,1.2,17.1,5.7,17.1,15.5c0,11.2-7.1,18.8-24.6,18.8
		h-31.7L671,486.4L671,486.4z M684.1,496.7v20h15.6c7.2,0,11.9-2.8,11.9-10.3c0-6.6-3.2-9.7-11.3-9.7L684.1,496.7L684.1,496.7z
		 M684.1,525.9v19.8h18.2c8.2,0,12-4,12-9.9c0-6.3-3.2-9.9-12.7-9.9L684.1,525.9L684.1,525.9z"/>
</g>
</svg>
