<?xml version="1.0" encoding="utf-8"?>
<!-- Generator: Adobe Illustrator 21.0.2, SVG Export Plug-In . SVG Version: 6.00 Build 0)  -->
<svg version="1.1" id="Layer_1" xmlns="http://www.w3.org/2000/svg" xmlns:xlink="http://www.w3.org/1999/xlink" x="0px" y="0px"
	 viewBox="0 0 1000 1000" style="enable-background:new 0 0 1000 1000;" xml:space="preserve">
<path d="M701.5,369.5l88.6-80.3l-4.8-6.9c-18,5.5-34.6,7.6-51.2,7.6c-45,0-75.5-11.1-109.4-28.4c-20.8,14.5-44.3,30.1-69.3,46.2
	c-37.7-12.2-98.7-38.1-119-48.9c-67.9,49.2-136.4,88.6-209.1,126c-10.4,20.8-22.9,63.7-22.9,98.3c0,177.3,119.1,241,280.5,249.3
	l27-41c38.9,12.9,77.4,28.2,107.3,50c23.5-16.6,34.6-23.5,53.3-36.7c74.8-52.6,123.3-96.3,123.3-169
	C795.7,442.2,751.3,396.5,701.5,369.5z M653.7,356.3c11.8,0,27.7-2.1,38.8-4.2l2.1,1.4l-108.7,99.7c-32.5-23.5-40.9-49.2-40.9-85.2
	c0-16.6,4.8-32.5,7.6-41.5l3.5-2.8C581,343.8,608,356.3,653.7,356.3z M293,479.6c0-81.7,20.8-115,47.1-137.8l1.4-0.7l-2.1,176.6
	c-0.7,36-4.2,54-17.3,67.2C304.8,562.7,293,509.3,293,479.6z M441.9,530.1V528c-12.5-9-18.7-24.9-19.4-56.1l-2.1-135l1.4-1.4
	c8,7.4,23.2,18.5,39.9,29.8c-0.4,0.2-0.8,0.5-1.2,0.7c-2.8,11.1-7.6,31.9-7.6,44.3c0,49.9,22.9,87.3,58.9,112.2L395,632.9
	c-26.5-10.5-50.7-24.8-66-40.4C356.7,575.1,412.1,543.3,441.9,530.1z M690.4,676.2h-2.1c-48.5-44.3-135.7-99-189-121.2l127.4-117
	c51.2,23.5,83.8,86.6,83.8,161.4C710.5,640.9,697.3,665.2,690.4,676.2z"/>
</svg>
